<svg width="65" height="65" xmlns="http://www.w3.org/2000/svg" xmlns:xlink="http://www.w3.org/1999/xlink" xml:space="preserve" overflow="hidden"><g transform="translate(-309 -308)"><g><g><g><g><path d="M328 353C328 355.577 325.911 357.667 323.333 357.667 320.756 357.667 318.667 355.577 318.667 353 318.667 350.423 320.756 348.333 323.333 348.333 325.911 348.333 328 350.423 328 353Z" fill="#002060" fill-rule="nonzero" fill-opacity="1"/><path d="M366.667 353C366.667 355.577 364.577 357.667 362 357.667 359.423 357.667 357.333 355.577 357.333 353 357.333 350.423 359.423 348.333 362 348.333 364.577 348.333 366.667 350.423 366.667 353Z" fill="#002060" fill-rule="nonzero" fill-opacity="1"/><path d="M312.667 325 350 325 350 341 312.667 341Z" fill="#002060" fill-rule="nonzero" fill-opacity="1"/><path d="M355.333 331.667 359.333 331.667C360.533 331.667 361.6 332.467 361.867 333.6L363.2 338.2C363.2 338.267 363.267 338.267 363.267 338.333L355.333 338.333 355.333 331.667ZM359.333 329 352.667 329 352.667 338.333 352.667 342.333 352.667 353 355.333 353C355.333 349.333 358.333 346.333 362 346.333 365.667 346.333 368.667 349.333 368.667 353 370.133 353 371.333 351.8 371.333 350.333L371.333 343.667C371.333 342.8 370.933 342.067 370.267 341.533L366.733 338.867C366.267 338.533 365.933 338 365.8 337.467L364.467 332.867C363.8 330.6 361.667 329 359.333 329Z" fill="#002060" fill-rule="nonzero" fill-opacity="1"/><path d="M350 353 330 353C330 349.333 327 346.333 323.333 346.333 319.667 346.333 316.667 349.333 316.667 353L312.667 353 312.667 343.667 350 343.667 350 353Z" fill="#002060" fill-rule="nonzero" fill-opacity="1"/></g></g></g></g></g></svg>