<svg width="65" height="66" xmlns="http://www.w3.org/2000/svg" xmlns:xlink="http://www.w3.org/1999/xlink" xml:space="preserve" overflow="hidden"><g transform="translate(-313 -374)"><g><g><g><g><path d="M48.3333 42.0667C47.2667 41 45.6667 40.4667 44.2 40.8L41.2 37.8667C43.8667 34.4 45.3333 30.1333 45.3333 25.7333 45.4 14.6 36.4 5.6 25.3333 5.53333 14.2667 5.46667 5.26667 14.4667 5.2 25.5333 5.13333 36.6 14.1333 45.6 25.2 45.6667 29.6 45.6667 33.9333 44.2 37.4667 41.5333L40.4 44.4667C40.1333 46 40.6 47.5333 41.6667 48.6667L50 57C51.8 58.8 54.8 58.8 56.6 57 58.4 55.2 58.4 52.2 56.6 50.4L48.3333 42.0667ZM25.3333 41.6667C16.4667 41.6667 9.33333 34.5333 9.33333 25.6667 9.33333 16.8 16.4667 9.66667 25.3333 9.66667 34.2 9.66667 41.3333 16.8 41.3333 25.6667 41.3333 34.4667 34.1333 41.6667 25.3333 41.6667Z" fill="#002060" fill-rule="nonzero" fill-opacity="1" transform="matrix(1 0 0 1.01562 314 375)"/><path d="M39.6667 24.6667 35.8667 24.6667C35.5333 24.7333 35.2 24.9333 35 25.2L32.4667 27.9333 30.3333 20.5333C30.1333 19.9333 29.4667 19.5333 28.8667 19.7333 28.5333 19.8667 28.2 20.0667 28.0667 20.4667L24.0667 31.0667 21.3333 16.4C21.2 15.7333 20.6 15.3333 20 15.4667 19.6 15.5333 19.2667 15.8667 19.0667 16.2667L16.2 24.6667 11 24.6667 11 27.3333 17.0667 27.3333C17.6 27.2667 18.0667 26.8667 18.2 26.3333L19.8667 21.2667 22.5333 35.6C22.6 36.1333 23.0667 36.5333 23.6 36.5333L23.7333 36.5333C24.2 36.5333 24.6667 36.2667 24.8667 35.8L29.1333 24.6 30.8667 30.6C31.0667 31.2 31.6667 31.6 32.3333 31.4 32.5333 31.3333 32.7333 31.2 32.8667 31.0667L36.4667 27.3333 39.7333 27.3333 39.7333 24.6667Z" fill="#002060" fill-rule="nonzero" fill-opacity="1" transform="matrix(1 0 0 1.01562 314 375)"/></g></g></g></g></g></svg>