<svg width="65" height="65" xmlns="http://www.w3.org/2000/svg" xmlns:xlink="http://www.w3.org/1999/xlink" xml:space="preserve" overflow="hidden"><g transform="translate(-301 -241)"><g><g><g><g><path d="M353.2 284.4C350.267 282 346.533 280.4 342.8 279.333 340.133 278.533 337.2 278 334 278 331.067 278 328.133 278.533 325.2 279.333 321.467 280.4 317.733 282.267 314.8 284.4 313.467 285.467 312.667 287.067 312.667 288.667L312.667 299.333 355.333 299.333 355.333 288.667C355.333 287.067 354.533 285.467 353.2 284.4Z" fill="#002060" fill-rule="nonzero" fill-opacity="1"/><path d="M323.6 255.6C324 255.6 324.333 255.467 324.533 255.2L324.533 255.2C327 252.8 330.333 251.333 334 251.333 341.333 251.333 347.333 257.333 347.333 264.667L347.333 267.733 339.667 270.267C339.333 270.133 339 270 338.667 270 337.533 270 336.667 270.867 336.667 272 336.667 273.133 337.533 274 338.667 274 339.467 274 340.2 273.533 340.533 272.8L351.133 269.267C351.667 269.067 352.067 268.6 352.067 268L352.067 262C352.067 261.267 351.467 260.667 350.733 260.667L349.533 260.667C347.733 253.8 341.467 248.667 334 248.667 329.667 248.667 325.733 250.4 322.8 253.2 322.467 253.467 322.267 253.8 322.267 254.267 322.267 255 322.867 255.6 323.6 255.6Z" fill="#002060" fill-rule="nonzero" fill-opacity="1"/><path d="M344.6 265.8C344.667 265.4 344.667 265.067 344.667 264.667 344.667 258.8 339.867 254 334 254 328.133 254 323.333 258.8 323.333 264.667 323.333 270.533 328.133 275.333 334 275.333 334.2 275.333 334.467 275.333 334.667 275.267L334.667 272C334.667 271.4 334.8 270.8 335.067 270.2 335.533 269.267 336.333 268.533 337.4 268.2L344.6 265.8Z" fill="#002060" fill-rule="nonzero" fill-opacity="1"/></g></g></g></g></g></svg>