<svg width="71" height="72" xmlns="http://www.w3.org/2000/svg" xmlns:xlink="http://www.w3.org/1999/xlink" xml:space="preserve" overflow="hidden"><g transform="translate(-313 -446)"><g><g><g><g><path d="M59.3542 14.1458C58.7708 10.7188 55.7083 8.09375 52.1354 8.09375 51.7708 8.09375 51.3333 8.16667 50.9688 8.16667 49.2188 5.97917 46.5208 4.59375 43.4583 4.59375 39.0104 4.59375 35.2917 7.58333 34.125 11.6667 30.0417 12.4688 26.9792 16.0417 26.9792 20.3438 26.9792 25.2292 30.9167 29.1667 35.7292 29.1667L35.7292 29.1667C35.7292 29.1667 57.3125 29.1667 57.6042 29.1667 61.8333 29.1667 64.9688 25.7396 64.9688 21.5104 64.9688 18.0104 62.5625 15.0938 59.3542 14.1458ZM57.1667 24.7917 35.5833 24.7917C33.9062 24.6458 32.4479 23.6979 31.7188 22.2396 31.0625 20.7083 31.2083 18.9583 32.2292 17.5729 33.1042 16.4062 34.4167 15.75 35.8021 15.75 36.0208 15.75 36.3125 15.75 36.5312 15.8229L37.8438 16.0417 37.8438 14.5833C37.8438 11.9583 39.5938 9.69792 42.1458 9.11458 42.5833 9.04167 43.0208 8.96875 43.4583 8.96875 43.4583 8.96875 43.4583 8.96875 43.4583 8.96875 43.4583 8.96875 43.4583 8.96875 43.4583 8.96875 45.5729 8.96875 47.4688 10.1354 48.4167 12.0312L48.8542 12.9063 49.8021 12.5417C50.2396 12.3958 50.75 12.3229 51.2604 12.3229 52.2083 12.3229 53.0833 12.6146 53.8854 13.125 55.0521 14 55.7812 15.3854 55.7812 16.8438L55.7812 18.0104 57.2396 18.0104C59.1354 18.0104 60.6667 19.5417 60.6667 21.4375 60.5938 23.2604 59.0625 24.7917 57.1667 24.7917Z" fill="#002060" fill-rule="nonzero" fill-opacity="1" transform="matrix(1 0 0 1.01429 314 447)"/><path d="M37.7708 32.0833 7.4375 32.0833C6.125 32.0833 5.10417 33.1042 5.10417 34.4167L5.10417 55.2708C5.10417 56.5833 6.125 57.6042 7.4375 57.6042 7.4375 57.6042 7.4375 57.6042 7.4375 57.6042L18.9583 57.6042 18.9583 60.5208 13.8542 60.5208 13.8542 64.8958 31.3542 64.8958 31.3542 60.5208 26.25 60.5208 26.25 57.6042 37.7708 57.6042C39.0833 57.6042 40.1042 56.5833 40.1042 55.2708L40.1042 34.4167C40.1042 33.1042 39.0833 32.0833 37.7708 32.0833ZM35.7292 53.2292 9.47917 53.2292 9.47917 36.4583 35.7292 36.4583 35.7292 53.2292Z" fill="#002060" fill-rule="nonzero" fill-opacity="1" transform="matrix(1 0 0 1.01429 314 447)"/><path d="M50.8958 32.0833C51.625 33.0312 51.9896 34.2708 51.9896 35.4375 51.9896 37.625 50.75 39.5938 48.8542 40.6146L48.8542 37.625 43.5312 43.0208 48.8542 48.2708 48.8542 45.2812C54.3229 43.8229 57.5313 38.2083 56 32.7396 55.9271 32.5208 55.8542 32.3021 55.7812 32.0833L50.8958 32.0833Z" fill="#002060" fill-rule="nonzero" fill-opacity="1" transform="matrix(1 0 0 1.01429 314 447)"/><path d="M16.6979 29.1667C16.1146 28.4375 15.6042 26.9792 15.6042 25.8125 15.6042 23.625 16.8438 21.6563 18.7396 20.6354L18.7396 23.625 24.0625 18.2292 18.7396 12.9792 18.7396 15.9688C13.2708 17.4271 10.0625 23.0417 11.5938 28.5104 11.6667 28.7292 11.7396 28.9479 11.8125 29.1667L16.6979 29.1667Z" fill="#002060" fill-rule="nonzero" fill-opacity="1" transform="matrix(1 0 0 1.01429 314 447)"/></g></g></g></g></g></svg>